<svg id="visual" viewBox="0 0 900 600" width="900" height="600" xmlns="http://www.w3.org/2000/svg" xmlns:xlink="http://www.w3.org/1999/xlink" version="1.1"><rect x="0" y="0" width="900" height="600" fill="#101311"></rect><g fill="#f2efe6"><circle r="14" cx="493" cy="76"></circle><circle r="5" cx="709" cy="172"></circle><circle r="6" cx="645" cy="80"></circle><circle r="9" cx="853" cy="295"></circle><circle r="8" cx="769" cy="531"></circle><circle r="8" cx="253" cy="189"></circle><circle r="4" cx="200" cy="502"></circle><circle r="4" cx="78" cy="10"></circle><circle r="10" cx="841" cy="555"></circle><circle r="5" cx="412" cy="235"></circle><circle r="4" cx="610" cy="121"></circle><circle r="7" cx="809" cy="488"></circle><circle r="11" cx="117" cy="152"></circle><circle r="12" cx="504" cy="542"></circle><circle r="8" cx="153" cy="196"></circle><circle r="8" cx="422" cy="37"></circle><circle r="6" cx="101" cy="65"></circle><circle r="8" cx="350" cy="458"></circle><circle r="9" cx="228" cy="36"></circle><circle r="9" cx="140" cy="262"></circle><circle r="7" cx="143" cy="143"></circle><circle r="11" cx="213" cy="467"></circle><circle r="7" cx="782" cy="5"></circle><circle r="8" cx="353" cy="559"></circle></g></svg>