<svg id="visual" viewBox="0 0 900 600" width="900" height="600" xmlns="http://www.w3.org/2000/svg" xmlns:xlink="http://www.w3.org/1999/xlink" version="1.1"><rect x="0" y="0" width="900" height="600" fill="#f2efe6"></rect><defs><linearGradient id="grad1_0" x1="33.3%" y1="0%" x2="100%" y2="100%"><stop offset="20%" stop-color="#f2efe6" stop-opacity="1"></stop><stop offset="80%" stop-color="#f2efe6" stop-opacity="1"></stop></linearGradient></defs><defs><linearGradient id="grad2_0" x1="0%" y1="0%" x2="66.7%" y2="100%"><stop offset="20%" stop-color="#f2efe6" stop-opacity="1"></stop><stop offset="80%" stop-color="#f2efe6" stop-opacity="1"></stop></linearGradient></defs><g transform="translate(900, 0)"><path d="M0 324.5C-32.5 320.7 -65 317 -100.3 308.6C-135.6 300.2 -173.7 287.3 -183.4 252.4C-193.1 217.6 -174.3 160.8 -179.6 130.5C-184.9 100.1 -214.4 96.2 -242.5 78.8C-270.7 61.4 -297.6 30.7 -324.5 0L0 0Z" fill="#be9c79"></path></g><g transform="translate(0, 600)"><path d="M0 -324.5C30.5 -317.1 61.1 -309.7 99.2 -305.3C137.3 -300.8 183 -299.3 190.7 -262.5C198.5 -225.7 168.2 -153.7 161 -117C153.8 -80.2 169.6 -78.8 200.7 -65.2C231.8 -51.6 278.1 -25.8 324.5 0L0 0Z" fill="#be9c79"></path></g></svg>