<svg id="visual" viewBox="0 0 960 540" width="960" height="540" xmlns="http://www.w3.org/2000/svg" xmlns:xlink="http://www.w3.org/1999/xlink" version="1.1"><rect x="0" y="0" width="960" height="540" fill="#FFFFFF"></rect><path d="M0 382L16 387.7C32 393.3 64 404.7 96 397.7C128 390.7 160 365.3 192 356.2C224 347 256 354 288 352.5C320 351 352 341 384 337C416 333 448 335 480 350.2C512 365.3 544 393.7 576 400C608 406.3 640 390.7 672 386C704 381.3 736 387.7 768 393C800 398.3 832 402.7 864 399.5C896 396.3 928 385.7 944 380.3L960 375L960 541L944 541C928 541 896 541 864 541C832 541 800 541 768 541C736 541 704 541 672 541C640 541 608 541 576 541C544 541 512 541 480 541C448 541 416 541 384 541C352 541 320 541 288 541C256 541 224 541 192 541C160 541 128 541 96 541C64 541 32 541 16 541L0 541Z" fill="#f2efe6" stroke-linecap="round" stroke-linejoin="miter"></path></svg>