<svg id="visual" viewBox="0 0 960 540" width="960" height="540" xmlns="http://www.w3.org/2000/svg" xmlns:xlink="http://www.w3.org/1999/xlink" version="1.1"><rect x="0" y="0" width="960" height="540" fill="#FFFFFF"></rect><defs><linearGradient id="grad1_0" x1="43.8%" y1="100%" x2="100%" y2="0%"><stop offset="14.444444444444446%" stop-color="#ffffff" stop-opacity="1"></stop><stop offset="85.55555555555554%" stop-color="#ffffff" stop-opacity="1"></stop></linearGradient></defs><defs><linearGradient id="grad2_0" x1="0%" y1="100%" x2="56.3%" y2="0%"><stop offset="14.444444444444446%" stop-color="#ffffff" stop-opacity="1"></stop><stop offset="85.55555555555554%" stop-color="#ffffff" stop-opacity="1"></stop></linearGradient></defs><g transform="translate(960, 540)"><path d="M-432 0C-446.9 -77.3 -461.7 -154.6 -399.1 -165.3C-336.5 -176 -196.4 -120.1 -152.7 -152.7C-109 -185.3 -161.7 -306.4 -152.3 -367.7C-142.9 -429 -71.5 -430.5 0 -432L0 0Z" fill="#f2efe6"></path></g><g transform="translate(0, 0)"><path d="M432 0C355.4 28 278.9 56 267 110.6C255.1 165.2 307.9 246.4 300.5 300.5C293.1 354.7 225.4 381.7 165.3 399.1C105.2 416.5 52.6 424.3 0 432L0 0Z" fill="#f2efe6"></path></g></svg>