<svg id="visual" viewBox="0 0 900 600" width="900" height="600" xmlns="http://www.w3.org/2000/svg" xmlns:xlink="http://www.w3.org/1999/xlink" version="1.1"><rect x="0" y="0" width="900" height="600" fill="#FFFFFF"></rect><defs><linearGradient id="grad1_0" x1="33.3%" y1="0%" x2="100%" y2="100%"><stop offset="20%" stop-color="#ffffff" stop-opacity="1"></stop><stop offset="80%" stop-color="#ffffff" stop-opacity="1"></stop></linearGradient></defs><defs><linearGradient id="grad2_0" x1="0%" y1="0%" x2="66.7%" y2="100%"><stop offset="20%" stop-color="#ffffff" stop-opacity="1"></stop><stop offset="80%" stop-color="#ffffff" stop-opacity="1"></stop></linearGradient></defs><g transform="translate(900, 0)"><path d="M0 324.5C-70.9 324.2 -141.8 323.8 -162.2 281C-182.7 238.2 -152.8 152.9 -171.5 99C-190.1 45.1 -257.3 22.5 -324.5 0L0 0Z" fill="#f2efe6"></path></g><g transform="translate(0, 600)"><path d="M0 -324.5C41.7 -290.6 83.5 -256.6 135 -233.8C186.5 -211 247.8 -199.4 281 -162.2C314.2 -125.1 319.4 -62.6 324.5 0L0 0Z" fill="#f2efe6"></path></g></svg>