<svg id="visual" viewBox="0 0 960 540" width="960" height="540" xmlns="http://www.w3.org/2000/svg" xmlns:xlink="http://www.w3.org/1999/xlink" version="1.1"><rect x="0" y="0" width="960" height="540" fill="#FFFFFF"></rect><defs><linearGradient id="grad1_0" x1="43.8%" y1="100%" x2="100%" y2="0%"><stop offset="14.444444444444446%" stop-color="#ffffff" stop-opacity="1"></stop><stop offset="85.55555555555554%" stop-color="#ffffff" stop-opacity="1"></stop></linearGradient></defs><defs><linearGradient id="grad2_0" x1="0%" y1="100%" x2="56.3%" y2="0%"><stop offset="14.444444444444446%" stop-color="#ffffff" stop-opacity="1"></stop><stop offset="85.55555555555554%" stop-color="#ffffff" stop-opacity="1"></stop></linearGradient></defs><g transform="translate(960, 540)"><path d="M-378 0C-380.8 -44.8 -383.5 -89.6 -359.5 -116.8C-335.5 -144 -284.7 -153.5 -261.3 -189.9C-237.9 -226.2 -241.8 -289.3 -212.2 -292.1C-182.6 -294.8 -119.4 -237.3 -78.5 -241.6C-37.5 -245.8 -18.8 -311.9 0 -378L0 0Z" fill="#f2efe6"></path></g><g transform="translate(0, 0)"><path d="M378 0C354.4 37.3 330.9 74.7 307.2 99.8C283.5 125 259.7 137.9 252.4 183.4C245.1 228.9 254.3 306.9 222.2 305.8C190 304.8 116.5 224.6 72.6 223.5C28.7 222.4 14.3 300.2 0 378L0 0Z" fill="#f2efe6"></path></g></svg>